<?xml version="1.0" encoding="UTF-8" standalone="no"?>
<!-- Created with Inkscape (http://www.inkscape.org/) -->

<svg
   xmlns:dc="http://purl.org/dc/elements/1.1/"
   xmlns:cc="http://creativecommons.org/ns#"
   xmlns:rdf="http://www.w3.org/1999/02/22-rdf-syntax-ns#"
   xmlns:svg="http://www.w3.org/2000/svg"
   xmlns="http://www.w3.org/2000/svg"
   xmlns:sodipodi="http://sodipodi.sourceforge.net/DTD/sodipodi-0.dtd"
   xmlns:inkscape="http://www.inkscape.org/namespaces/inkscape"
   width="210mm"
   height="297mm"
   viewBox="0 0 210 297"
   version="1.1"
   id="svg8"
   sodipodi:docname="Imagens.svg"
   inkscape:version="0.92.3 (unknown)">
  <defs
     id="defs2" />
  <sodipodi:namedview
     id="base"
     pagecolor="#ffffff"
     bordercolor="#666666"
     borderopacity="1.0"
     inkscape:pageopacity="0.0"
     inkscape:pageshadow="2"
     inkscape:zoom="0.45254834"
     inkscape:cx="280.81706"
     inkscape:cy="345.55445"
     inkscape:document-units="mm"
     inkscape:current-layer="layer2"
     showgrid="false"
     inkscape:snap-grids="false"
     inkscape:window-width="1327"
     inkscape:window-height="744"
     inkscape:window-x="39"
     inkscape:window-y="24"
     inkscape:window-maximized="1"
     inkscape:snap-bbox="true">
    <inkscape:grid
       type="xygrid"
       id="grid3725" />
  </sodipodi:namedview>
  <metadata
     id="metadata5">
    <rdf:RDF>
      <cc:Work
         rdf:about="">
        <dc:format>image/svg+xml</dc:format>
        <dc:type
           rdf:resource="http://purl.org/dc/dcmitype/StillImage" />
      </cc:Work>
    </rdf:RDF>
  </metadata>
  <g
     inkscape:label="Camada 1"
     inkscape:groupmode="layer"
     id="layer1">
    <g
       id="g15191"
       transform="translate(-0.58465209,0.29232605)">
      <text
         id="text15118"
         y="136.19775"
         x="1.9081153"
         style="font-style:normal;font-variant:normal;font-weight:normal;font-stretch:normal;font-size:13.52225494px;line-height:1.25;font-family:FreeSans;-inkscape-font-specification:FreeSans;letter-spacing:0px;word-spacing:0px;fill:#808080;fill-opacity:1;stroke:none;stroke-width:0.33805636"
         xml:space="preserve"><tspan
           style="font-style:normal;font-variant:normal;font-weight:normal;font-stretch:normal;font-family:FreeSans;-inkscape-font-specification:FreeSans;fill:#808080;stroke-width:0.33805636"
           y="136.19775"
           x="1.9081153"
           id="tspan15116"
           sodipodi:role="line">saber onde</tspan></text>
      <text
         id="text15122"
         y="153.16257"
         x="1.1349066"
         style="font-style:normal;font-variant:normal;font-weight:normal;font-stretch:normal;font-size:20.78669739px;line-height:1.25;font-family:FreeSans;-inkscape-font-specification:FreeSans;letter-spacing:0px;word-spacing:0px;fill:#800080;fill-opacity:1;stroke:none;stroke-width:0.51966745"
         xml:space="preserve"><tspan
           style="font-style:normal;font-variant:normal;font-weight:normal;font-stretch:normal;font-family:FreeSans;-inkscape-font-specification:FreeSans;fill:#800080;stroke-width:0.51966745"
           y="153.16257"
           x="1.1349066"
           id="tspan15120"
           sodipodi:role="line">realizar</tspan></text>
      <text
         id="text15126"
         y="163.05692"
         x="1.7665061"
         style="font-style:normal;font-variant:normal;font-weight:normal;font-stretch:normal;font-size:10.97521114px;line-height:1.25;font-family:FreeSans;-inkscape-font-specification:FreeSans;letter-spacing:0px;word-spacing:0px;fill:#808080;fill-opacity:1;stroke:none;stroke-width:0.27438027"
         xml:space="preserve"><tspan
           style="font-style:normal;font-variant:normal;font-weight:normal;font-stretch:normal;font-family:FreeSans;-inkscape-font-specification:FreeSans;fill:#808080;stroke-width:0.27438027"
           y="163.05692"
           x="1.7665061"
           id="tspan15124"
           sodipodi:role="line">meus exames</tspan></text>
      <path
         id="path15128"
         d="m 4.7069057,89.450403 c -1.2955876,0 -2.3383581,1.043286 -2.3383581,2.338877 v 25.32248 c 0,1.29559 1.0427705,2.33887 2.3383581,2.33887 h 0.6345872 l 0.7369043,0.99271 2.3910686,4.86998 2.4225912,-4.85603 0.75706,-1.00666 h 18.380792 c 1.295588,0 2.338358,-1.04328 2.338358,-2.33887 V 91.78928 c 0,-1.295591 -1.04277,-2.338877 -2.338358,-2.338877 z M 26.359847,92.3479 26.311277,116.703 18.928781,108.0627 7.5666834,107.83997 Z"
         style="fill:#800080;stroke-width:0.28535795"
         inkscape:connector-curvature="0" />
    </g>
    <g
       id="g15198"
       transform="translate(-10.458431,-0.76601095)">
      <path
         id="path15132"
         d="m 84.090859,90.50874 c -1.29559,0 -2.338358,1.043297 -2.338358,2.338877 V 118.1701 c 0,1.29559 1.042768,2.33888 2.338358,2.33888 h 0.634588 l 0.736904,0.9927 2.391069,4.86999 2.422591,-4.85604 0.75706,-1.00665 h 18.380789 c 1.29559,0 2.33836,-1.04329 2.33836,-2.33888 V 92.847617 c 0,-1.29558 -1.04277,-2.338877 -2.33836,-2.338877 z m 7.79539,2.894399 h 4.040063 v 0.778764 h -0.7152 v 3.846793 h 3.684529 v -3.846793 h -0.761712 v -0.778764 h 4.039551 v 0.778764 h -0.71469 v 3.846793 h 4.80539 V 116.49682 H 87.674104 V 98.028696 h 4.973857 v -3.846793 h -0.761712 z m -2.622063,6.187733 V 114.73827 H 104.70304 V 99.590872 h -3.24425 V 111.7276 c 0,0.72278 -0.57219,1.30535 -1.28209,1.30535 -0.7099,0 -1.281059,-0.58257 -1.281059,-1.30535 V 99.590872 H 95.211112 V 111.7276 c 0,0.72278 -0.571678,1.30535 -1.281576,1.30535 -0.709901,0 -1.281575,-0.58257 -1.281575,-1.30535 V 99.590872 Z"
         style="fill:#f7941e;fill-opacity:1;stroke-width:0.28535795"
         inkscape:connector-curvature="0" />
      <text
         id="text15136"
         y="136.51018"
         x="81.311157"
         style="font-style:normal;font-variant:normal;font-weight:normal;font-stretch:normal;font-size:13.52225494px;line-height:1.25;font-family:FreeSans;-inkscape-font-specification:FreeSans;letter-spacing:0px;word-spacing:0px;fill:#808080;fill-opacity:1;stroke:none;stroke-width:0.33805636"
         xml:space="preserve"><tspan
           style="font-style:normal;font-variant:normal;font-weight:normal;font-stretch:normal;font-family:FreeSans;-inkscape-font-specification:FreeSans;fill:#808080;stroke-width:0.33805636"
           y="136.51018"
           x="81.311157"
           id="tspan15134"
           sodipodi:role="line">tornar-se</tspan></text>
      <text
         id="text15140"
         y="151.23749"
         x="80.661667"
         style="font-style:normal;font-variant:normal;font-weight:normal;font-stretch:normal;font-size:18.72473717px;line-height:1.25;font-family:FreeSans;-inkscape-font-specification:FreeSans;letter-spacing:0px;word-spacing:0px;fill:#f7941e;fill-opacity:1;stroke:none;stroke-width:0.46811846"
         xml:space="preserve"><tspan
           style="font-style:normal;font-variant:normal;font-weight:normal;font-stretch:normal;font-family:FreeSans;-inkscape-font-specification:FreeSans;fill:#f7941e;fill-opacity:1;stroke-width:0.46811846"
           y="151.23749"
           x="80.661667"
           id="tspan15138"
           sodipodi:role="line">parceiro</tspan></text>
    </g>
    <g
       id="g15154"
       transform="translate(116.6381,-74.849811)">
      <path
         inkscape:connector-curvature="0"
         id="path15144"
         d="M 26.338359,164.59254 C 25.042768,164.59254 24,165.63583 24,166.93141 v 25.32249 c 0,1.29558 1.042768,2.33887 2.338359,2.33887 h 0.634585 l 0.736907,0.9927 2.391069,4.86999 2.422591,-4.85603 0.75706,-1.00666 H 51.66136 c 1.295591,0 2.338358,-1.04329 2.338358,-2.33887 v -25.32249 c 0,-1.29558 -1.042767,-2.33887 -2.338358,-2.33887 z m 12.24628,3.15897 c 0.178911,0.006 0.340151,0.038 0.55242,0.0997 0.593202,0.17245 1.284042,0.71566 1.464511,1.15135 0.09,0.21733 0.211463,0.31274 0.456304,0.35864 1.07383,0.20145 1.588285,1.64016 1.233516,3.44888 -0.13925,0.70988 -0.13753,0.72508 0.06718,0.75448 0.11498,0.0165 0.269549,0.15701 0.343649,0.31212 0.28299,0.59226 -0.400701,2.84564 -0.858862,2.83084 -0.163801,-0.005 -0.226742,0.0917 -0.318844,0.49092 -0.3781,1.63804 -1.535501,2.79701 -3.074231,3.07889 -0.664551,0.1219 -0.635381,0.12182 -1.264523,-0.001 -0.707958,-0.13826 -1.662914,-0.65733 -2.070674,-1.12603 -0.43144,-0.49592 -0.906489,-1.44081 -0.998389,-1.98489 -0.04853,-0.28724 -0.122566,-0.3973 -0.296106,-0.4408 -0.541668,-0.13595 -1.153559,-2.55518 -0.76481,-3.02359 0.07149,-0.0861 0.21377,-0.15658 0.316259,-0.15658 0.1582,0 0.175173,-0.0496 0.113173,-0.32711 -0.0401,-0.17987 -0.0686,-0.80226 -0.0646,-1.38338 0.01075,-1.38196 0.23943,-2.00764 1.011309,-2.76727 0.30049,-0.29573 0.504285,-0.56393 0.452686,-0.59583 -0.05161,-0.0319 -0.143406,-0.19929 -0.203604,-0.37207 l -0.109038,-0.31419 1.332217,0.0698 c 0.84097,0.0441 1.586566,0.0287 2.022615,-0.0419 0.282303,-0.0457 0.478944,-0.067 0.657842,-0.061 z m 2.452563,12.66486 0.659908,0.40102 c 0.859051,0.52188 1.700498,0.89577 2.910416,1.29242 0.78994,0.25897 1.061585,0.40154 1.396815,0.73381 0.361651,0.35847 0.726802,1.11655 0.635103,1.29759 a 4.6314132,4.6314132 0 0 0 -1.82676,-0.38137 4.6314132,4.6314132 0 0 0 -4.631759,4.63124 4.6314132,4.6314132 0 0 0 0.09922,0.94671 l -0.262001,0.0434 c -0.381899,0.0627 -3.82796,0.0574 -4.441589,-0.007 -2.513029,-0.26462 -6.338015,-1.5762 -6.513814,-2.23346 -0.13158,-0.49184 -0.08518,-2.85292 0.06614,-3.37447 0.2251,-0.77578 0.793282,-1.29613 1.718242,-1.57406 1.047609,-0.31479 2.211072,-0.81509 3.040641,-1.30793 0.385961,-0.22932 0.73473,-0.37845 0.774629,-0.33125 0.03992,0.0472 0.449016,1.28567 0.909505,2.75229 0.460481,1.46661 0.880161,2.77981 0.93276,2.91817 0.08551,0.2248 0.137059,0.13558 0.481107,-0.83716 l 0.38499,-1.08831 -0.297137,-0.47749 c -0.518613,-0.83388 -0.514903,-1.60118 0.0083,-1.87172 0.426831,-0.22066 1.19157,-0.19448 1.60042,0.0548 0.32943,0.20085 0.337423,0.22202 0.293523,0.75086 -0.03122,0.37632 -0.14043,0.69794 -0.354502,1.04231 l -0.309541,0.49764 0.353467,0.98961 c 0.19453,0.54429 0.382561,1.02052 0.418063,1.05781 0.0355,0.0374 0.489731,-1.28035 1.00924,-2.9285 z m 4.112929,4.56045 a 3.4041008,3.4041008 0 0 1 3.403925,3.40393 3.4041008,3.4041008 0 0 1 -3.403925,3.40392 3.4041008,3.4041008 0 0 1 -3.403928,-3.40392 3.4041008,3.4041008 0 0 1 3.403928,-3.40393 z m -0.172601,1.20975 v 1.79937 h -1.799373 v 0.54932 h 1.799373 v 1.79886 h 0.542602 v -1.79886 h 1.799373 v -0.54932 h -1.799373 v -1.79937 z"
         style="fill:#008000;fill-opacity:1;stroke-width:0.28535795" />
      <text
         xml:space="preserve"
         style="font-style:normal;font-variant:normal;font-weight:normal;font-stretch:normal;font-size:13.52225494px;line-height:1.25;font-family:FreeSans;-inkscape-font-specification:FreeSans;letter-spacing:0px;word-spacing:0px;fill:#808080;fill-opacity:1;stroke:none;stroke-width:0.33805636"
         x="23.188665"
         y="211.1232"
         id="text15148"><tspan
           sodipodi:role="line"
           id="tspan15146"
           x="23.188665"
           y="211.1232"
           style="font-style:normal;font-variant:normal;font-weight:normal;font-stretch:normal;font-family:FreeSans;-inkscape-font-specification:FreeSans;fill:#808080;stroke-width:0.33805636">realizar</tspan></text>
      <text
         xml:space="preserve"
         style="font-style:normal;font-variant:normal;font-weight:normal;font-stretch:normal;font-size:17.43605995px;line-height:1.25;font-family:FreeSans;-inkscape-font-specification:FreeSans;letter-spacing:0px;word-spacing:0px;fill:#008000;fill-opacity:1;stroke:none;stroke-width:0.43590152"
         x="23.476917"
         y="225.35098"
         id="text15152"><tspan
           sodipodi:role="line"
           id="tspan15150"
           x="23.476917"
           y="225.35098"
           style="font-style:normal;font-variant:normal;font-weight:normal;font-stretch:normal;font-family:FreeSans;-inkscape-font-specification:FreeSans;fill:#008000;fill-opacity:1;stroke-width:0.43590152">cadastro</tspan></text>
    </g>
  </g>
  <g
     inkscape:groupmode="layer"
     id="layer2"
     inkscape:label="Camada 2" />
</svg>
